#!OML:ASF F:\VICON\USERDATA\INSTALL\rory3\rory3.ASF
:FULLY-SPECIFIED
:DEGREES
1161
root 2.98472 23.224 -0.0384266 -169.509 -26.7565 177.877
lowerback 10.4226 -2.32997 -7.02412
upperback 1.83651 -3.98418 0.407512
thorax -3.41019 -1.96027 4.88881
lowerneck -14.5562 0.998879 -11.7759
upperneck 39.1958 -0.879856 5.41889
head 16.5988 -2.6078 4.01039
rclavicle 8.14023e-014 -1.19271e-015
rhumerus -21.0141 33.6453 -77.2477
rradius 115.785
rwrist 54.95
rhand -68.6617 4.57396
rfingers 7.12502
rthumb -40.3518 -20.545
lclavicle 8.14023e-014 -1.19271e-015
lhumerus 20.3717 -32.1397 79.5894
lradius 59.8061
lwrist -37.0948
lhand -18.9729 25.1072
lfingers 7.12502
lthumb 7.33134 54.9602
rfemur -25.0332 -0.670323 22.5665
rtibia 36.2354
rfoot -14.4187 -1.82147
rtoes 15.0148
lfemur -34.3021 3.18804 -21.6526
ltibia 40.7484
lfoot -6.76106 -11.925
ltoes -21.2584
1162
root 2.95071 23.1965 -0.0265603 -169.579 -26.6718 178.305
lowerback 10.4716 -2.35069 -6.71385
upperback 1.83415 -3.9644 0.709693
thorax -3.44127 -1.94992 5.03305
lowerneck -14.6013 0.953423 -12.0993
upperneck 39.0696 -0.800959 5.42468
head 16.5373 -2.60655 4.08265
rclavicle 1.55052e-014 -3.69739e-014
rhumerus -23.5186 34.7731 -79.0863
rradius 114.937
rwrist 54.1855
rhand -67.6234 6.31036
rfingers 7.12502
rthumb -39.3745 -19.1013
lclavicle 1.55052e-014 -3.69739e-014
lhumerus 20.306 -31.9518 80.0494
lradius 60.0748
lwrist -37.0922
lhand -18.9408 25.1976
lfingers 7.12502
lthumb 7.36233 55.0495
rfemur -25.3386 -0.55685 22.8945
rtibia 36.6314
rfoot -14.7257 -1.79271
rtoes 14.2222
lfemur -33.7028 2.66892 -21.3346
ltibia 39.0308
lfoot -6.38005 -11.5916
ltoes -21.2687
1163
root 2.92014 23.1803 -0.0254588 -169.512 -26.5478 178.12
lowerback 10.5184 -2.34793 -6.99563
upperback 1.88565 -3.99468 0.787707
thorax -3.38387 -1.96756 5.27782
lowerneck -14.7323 0.962723 -12.0835
upperneck 39.1003 -0.717632 5.29427
head 16.5774 -2.58697 4.03758
rclavicle 3.32964e-014 -7.95139e-016
rhumerus -25.6349 35.8214 -80.9421
rradius 113.71
rwrist 53.1115
rhand -66.3829 8.64286
rfingers 7.12502
rthumb -38.2045 -17.1004
lclavicle 3.32964e-014 -7.95139e-016
lhumerus 20.2725 -31.8003 80.2867
lradius 60.3528
lwrist -37.1659
lhand -18.785 25.0232
lfingers 7.12502
lthumb 7.51269 54.8698
rfemur -25.4112 -0.72893 22.6538
rtibia 36.9064
rfoot -14.996 -1.51622
rtoes 14.0277
lfemur -32.9384 2.2128 -21.6572
ltibia 37.4756
lfoot -5.85718 -11.3003
ltoes -20.7747
1164
root 2.87536 23.1717 -0.0388015 -169.194 -26.4448 177.887
lowerback 9.8862 -2.38778 -7.14707
upperback 2.02207 -4.01282 0.7743
thorax -2.87845 -2.0019 5.30366
lowerneck -14.8721 0.958017 -11.9337
upperneck 39.1349 -0.713956 5.20525
head 16.6304 -2.57295 3.97456
rclavicle 2.5842e-014 2.38542e-015
rhumerus -27.3358 36.4961 -82.6206
rradius 112.271
rwrist 52.4062
rhand -64.8577 10.5091
rfingers 7.12502
rthumb -36.763 -15.6163
lclavicle 2.5842e-014 2.38542e-015
lhumerus 20.3029 -31.7646 80.3975
lradius 60.7109
lwrist -37.2623
lhand -18.9343 25.0691
lfingers 7.12502
lthumb 7.36857 54.9208
rfemur -25.5888 -1.00497 22.3366
rtibia 37.1244
rfoot -15.3329 -1.26921
rtoes 12.5929
lfemur -32.3939 1.93506 -22.1387
ltibia 36.1516
lfoot -5.27339 -11.1461
ltoes -18.1193
1165
root 2.82415 23.1607 -0.0508764 -168.87 -26.3377 178.208
lowerback 9.00207 -2.48718 -6.73763
upperback 2.05614 -4.02233 0.913823
thorax -2.36964 -2.02698 5.16159
lowerneck -14.7681 0.975376 -11.9416
upperneck 38.9814 -0.661285 5.17297
head 16.5158 -2.5429 3.96554
rclavicle -7.15625e-014 -1.78906e-015
rhumerus -29.0896 36.9408 -84.1758
rradius 110.755
rwrist 51.7185
rhand -62.9436 11.8983
rfingers 7.12502
rthumb -34.9494 -14.6696
lclavicle -7.15625e-014 -1.78906e-015
lhumerus 20.1338 -31.6695 80.6482
lradius 61.167
lwrist -37.3822
lhand -19.0126 25.4356
lfingers 7.12502
lthumb 7.29295 55.2899
rfemur -26.0314 -1.31089 22.5544
rtibia 37.3406
rfoot -15.4985 -0.770795
rtoes 13.4039
lfemur -32.1661 1.83962 -22.1507
ltibia 35.0521
lfoot -4.74071 -10.9106
ltoes -13.34
